<svg height="512" viewBox="0 0 64 64" width="512" xmlns="http://www.w3.org/2000/svg"><g id="Salt_Paper" fill="rgb(13,110,253)" data-name="Salt Paper"><path d="m64 51.6-3.63-29.6a6 6 0 0 0 -3.37-4.67v-.33a1 1 0 0 0 1-1v-.59a2.37 2.37 0 0 1 .71-1.7c.39-.39.29-.66.29-2.71a5 5 0 0 0 -5-5h-10a5 5 0 0 0 -5 5v2c0 .81 1 .95 1 2.41v.59a1 1 0 0 0 1 1v.33a6 6 0 0 0 -3.37 4.67c-3.84 31.63-3.63 29.77-3.63 30.29a5.72 5.72 0 0 0 5.72 5.71h18.56a5.73 5.73 0 0 0 5.72-6.4zm-23-40.6a3 3 0 0 1 3-3h10a3 3 0 0 1 3 3v1.62a4.8 4.8 0 0 0 -1 2.38h-14a4.34 4.34 0 0 0 -1-2.38zm17.28 45h-18.56a3.72 3.72 0 0 1 -3.72-3.71c0-.35-.22 1.59 3.61-30a4 4 0 0 1 2.71-3.29c.81-.27.68-1 .68-1.95h12c0 1.06-.11 1.68.68 1.95a4 4 0 0 1 2.71 3.31l3.61 29.53a3.71 3.71 0 0 1 -3.72 4.16z"/><path d="m58.15 36.88a1 1 0 0 0 -1-.88h-16.3a1 1 0 0 0 -1 .88l-1.85 15.29a1.71 1.71 0 0 0 1.72 1.83h18.56a1.75 1.75 0 0 0 1.72-1.8c0-.1.11.85-1.85-15.32zm-18.15 15.12 1.7-14h14.57l1.73 14z"/><path d="m44 11a1 1 0 0 0 0-2 1 1 0 0 0 0 2z"/><path d="m49 11a1 1 0 0 0 0-2 1 1 0 0 0 0 2z"/><path d="m54 11a1 1 0 0 0 0-2 1 1 0 0 0 0 2z"/><path d="m26.37 22a6 6 0 0 0 -3.37-4.67v-.33a1 1 0 0 0 1-1v-.59c0-1.45 1-1.6 1-2.41v-2a5 5 0 0 0 -5-5h-10a5 5 0 0 0 -5 5c0 2.19-.08 2.34.29 2.71a2.37 2.37 0 0 1 .71 1.7v.59a1 1 0 0 0 1 1v.33a6 6 0 0 0 -3.37 4.67l-3.63 29.6a5.73 5.73 0 0 0 5.72 6.4h18.56a5.72 5.72 0 0 0 5.72-5.71c0-.51.21 1.37-3.63-30.29zm-19.37-11a3 3 0 0 1 3-3h10a3 3 0 0 1 3 3v1.62a4.8 4.8 0 0 0 -1 2.38h-14a4.34 4.34 0 0 0 -1-2.38zm17.28 45h-18.56a3.72 3.72 0 0 1 -3.72-3.71c0-.35-.22 1.59 3.61-30a4 4 0 0 1 2.71-3.29c.81-.27.68-1 .68-1.95h12c0 1.06-.11 1.68.68 1.95a4 4 0 0 1 2.71 3.31l3.61 29.53a3.71 3.71 0 0 1 -3.72 4.16z"/><path d="m24.15 36.88a1 1 0 0 0 -1-.88h-16.3a1 1 0 0 0 -1 .88l-1.85 15.29a1.71 1.71 0 0 0 1.72 1.83h18.56a1.75 1.75 0 0 0 1.72-1.8c0-.1.11.85-1.85-15.32zm-18.15 15.12 1.7-14h14.57l1.73 14z"/><path d="m10 11a1 1 0 0 0 0-2 1 1 0 0 0 0 2z"/><path d="m15 11a1 1 0 0 0 0-2 1 1 0 0 0 0 2z"/><path d="m20 11a1 1 0 0 0 0-2 1 1 0 0 0 0 2z"/></g></svg>